<?xml version="1.0" encoding="utf-8"?>
<!-- Generator: Adobe Illustrator 23.0.4, SVG Export Plug-In . SVG Version: 6.00 Build 0)  -->
<svg version="1.2" baseProfile="tiny" id="Layer_1" xmlns="http://www.w3.org/2000/svg" xmlns:xlink="http://www.w3.org/1999/xlink"
	 x="0px" y="0px" viewBox="0 0 415.97 139.58" xml:space="preserve">
<path d="M152.81,68.94v54.3h-12.77v-54.3h-16.8V57.21h46.14v11.74H152.81z"/>
<path d="M195.58,84.93c-2.07-1.15-3.41-1.72-4.03-1.72c-2.07,0-3.55,0.82-4.43,2.47c-0.88,1.65-1.32,3.7-1.32,6.16v31.41h-11.74
	V71.82h11.74v2.65c1.84-1.99,4.41-2.99,7.71-2.99c1.99,0,3.99,0.65,5.98,1.96L195.58,84.93z"/>
<path d="M213.1,104.03c0.31,2.46,1.46,4.37,3.45,5.75c1.99,1.38,4.06,2.07,6.21,2.07c1.53,0,2.91-0.27,4.14-0.8
	c1.23-0.54,2.38-1.5,3.45-2.88l7.94,7.48c-2.23,2.92-4.62,5-7.19,6.27c-2.57,1.27-5.46,1.9-8.69,1.9
	c-7.21-0.08-12.56-2.32-16.05-6.73c-3.49-4.41-5.24-10.8-5.24-19.16c0-8.59,1.9-15.32,5.69-20.19c3.8-4.87,9.07-7.3,15.82-7.3
	c6.21,0,11.16,2.19,14.84,6.56c3.68,4.37,5.52,10.97,5.52,19.79v3.11c0,0.46-0.02,1.13-0.06,2.01c-0.04,0.88-0.06,1.59-0.06,2.13
	H213.1z M222.53,82.18c-2.53,0-4.64,0.97-6.33,2.9c-1.69,1.93-2.72,4.34-3.11,7.22h17.95c-0.38-2.88-1.32-5.29-2.82-7.22
	C226.73,83.14,224.83,82.18,222.53,82.18z"/>
<path d="M249.6,60.43l11.74-5.18v19.07c1.3-0.91,2.82-1.65,4.54-2.22c1.73-0.57,3.55-0.86,5.47-0.86c5.98,0,10.62,2.4,13.92,7.19
	c3.3,4.8,4.95,11.37,4.95,19.73c0,3.6-0.46,6.98-1.38,10.12c-0.92,3.15-2.23,5.87-3.91,8.17c-1.69,2.3-3.74,4.12-6.16,5.47
	c-2.42,1.34-5.12,2.01-8.11,2.01c-1.84,0-3.53-0.27-5.06-0.8c-1.53-0.53-2.95-1.48-4.26-2.85v2.96H249.6V60.43z M269.05,82.98
	c-2,0-3.62,0.77-4.89,2.32c-1.27,1.55-2.21,3.48-2.82,5.8v13.8c0.15,0.7,0.46,1.47,0.92,2.32c0.46,0.85,1.05,1.64,1.78,2.38
	c0.73,0.73,1.53,1.35,2.42,1.86c0.88,0.5,1.86,0.75,2.93,0.75c1.53,0,2.89-0.37,4.08-1.1c1.19-0.73,2.19-1.74,2.99-3.01
	c0.8-1.27,1.42-2.76,1.84-4.46c0.42-1.7,0.63-3.52,0.63-5.45c0-4.87-0.73-8.62-2.19-11.25C275.3,84.3,272.73,82.98,269.05,82.98z"/>
<path d="M317.32,123.82c-6.75,0-11.91-2.28-15.47-6.84c-3.57-4.56-5.35-11.03-5.35-19.39c0-3.76,0.5-7.25,1.49-10.47
	c1-3.22,2.42-6.02,4.26-8.4c1.84-2.38,4.03-4.24,6.56-5.58c2.53-1.34,5.37-2.01,8.51-2.01c3.15,0,6,0.67,8.57,2.01
	c2.57,1.34,4.78,3.18,6.62,5.52c1.84,2.34,3.26,5.14,4.26,8.4c1,3.26,1.5,6.77,1.5,10.53c0,8.13-1.8,14.54-5.41,19.21
	C329.25,121.48,324.07,123.82,317.32,123.82z M317.32,83.1c-2.92,0-5.16,1.34-6.73,4.03c-1.57,2.69-2.36,6.21-2.36,10.58
	c0,9.43,3.07,14.15,9.2,14.15c6.06,0,9.09-4.72,9.09-14.15C326.53,87.97,323.46,83.1,317.32,83.1z"/>
<path d="M346.96,61.81l11.74-7.48v68.92h-11.74V61.81z"/>
<path d="M374.79,69.06c-2,0-3.57-0.71-4.72-2.13c-1.15-1.42-1.73-3.2-1.73-5.35c0-2.22,0.58-4.04,1.73-5.47
	c1.15-1.42,2.72-2.13,4.72-2.13c1.76,0,3.28,0.71,4.54,2.13c1.27,1.42,1.9,3.24,1.9,5.47c0,2.15-0.65,3.93-1.96,5.35
	C377.98,68.35,376.48,69.06,374.79,69.06z M368.93,71.82h11.73v51.43h-11.73V71.82z"/>
<path d="M414.02,123.02c-1.69,0.38-3.05,0.63-4.09,0.75c-1.03,0.12-2.2,0.17-3.51,0.17c-4.14,0-7.31-1.46-9.49-4.37
	c-2.19-2.92-3.28-7.13-3.28-12.66V83.55h-5.18V71.82h5.18v-8.4l11.73-6.56v14.95h8.86v11.74h-8.86v19.9c0,3.61,0.33,5.95,0.98,7.02
	c0.65,1.07,1.82,1.61,3.51,1.61c0.38,0,0.88-0.09,1.5-0.29c0.61-0.19,1.3-0.4,2.07-0.63l-0.12,0.11c0.15-0.15,0.59-0.36,1.32-0.63
	c0.73-0.27,1.17-0.44,1.32-0.52L414.02,123.02z"/>
<polygon fill="#00ACD5" points="0,0 0,57.08 50.22,20.34 100.49,57.33 100.49,0.25 "/>
<polygon fill="#FFFFFF" points="0,57.08 0,72.15 0,97.25 100.49,97.25 100.49,72.15 100.49,57.33 50.22,20.34 "/>
<g>
	<polygon fill="#F9A13A" points="50.22,59.75 0,96.49 0,139.42 50.22,102.55 100.49,139.4 100.49,96.74 	"/>
</g>
</svg>
